<?xml version="1.0" encoding="UTF-8"?>
<svg width="30px" height="40px" viewBox="0 0 30 40" version="1.1" xmlns="http://www.w3.org/2000/svg" xmlns:xlink="http://www.w3.org/1999/xlink">
    <!-- Generator: Sketch 60 (88103) - https://sketch.com -->
    <title>Group 3</title>
    <desc>Created with Sketch.</desc>
    <defs>
        <polygon id="path-1" points="0 0 30 0 30 40 0 40"></polygon>
    </defs>
    <g id="Diseño-Escritorio" stroke="none" stroke-width="1" fill="none" fill-rule="evenodd">
        <g id="Home" transform="translate(-498.000000, -1898.000000)">
            <g id="Group-3" transform="translate(498.000000, 1898.000000)">
                <mask id="mask-2" fill="white">
                    <use xlink:href="#path-1"></use>
                </mask>
                <g id="Clip-2"></g>
                <path d="M17.6784925,9.4996081 C17.6784925,9.77641186 17.438489,10 17.143236,10 L12.857206,10 C12.561069,10 12.3215075,9.77641186 12.3215075,9.4996081 C12.3215075,7.50587847 17.6784925,7.50422837 17.6784925,9.4996081 M11.8021628,2.96192401 C10.7705454,5.01711976 10.1787135,7.76370612 10.1787135,10.4999794 L10.1787135,28.3544408 C9.739812,28.6642465 9.37649173,29.0161297 9.1068745,29.3993647 L9.1068745,16.5005569 C7.0812093,25.6779836 0,26.2864568 0,33.9994225 L0,33.999835 L8.571618,33.999835 L8.571618,34.9997937 L0,34.9997937 C0,36.6569036 1.9187023,38.0000825 4.28514601,38.0000825 L8.571618,38.0000825 C8.571618,39.4492801 9.2434511,40 10.1787135,40 L12.857206,40 C13.7933524,40 14.4647435,39.4488676 14.4647435,38.0000825 L15.5356985,38.0000825 C15.5356985,39.4492801 16.2079736,40 17.143236,40 L19.8212865,40 C20.7578749,40 21.428382,39.4488676 21.428382,38.0000825 L25.714412,38.0000825 C28.0808557,38.0000825 30,36.6569036 30,34.9997937 L21.428382,34.9997937 L21.428382,33.999835 L30,33.999835 L30,33.9994225 C30,26.2864568 22.9183487,25.6779836 20.8926835,16.5005569 L20.8926835,29.3993647 C20.6235083,29.0161297 20.26063,28.6642465 19.8212865,28.3544408 L19.8212865,10.4999794 C19.8212865,7.76370612 19.2298966,5.01711976 18.1982792,2.96192401 C17.2661107,1.10762757 16.070955,0 15,0 C13.929487,0 12.7334473,1.10762757 11.8021628,2.96192401" id="Fill-1" fill="#FFFFFF" mask="url(#mask-2)"></path>
            </g>
        </g>
    </g>
</svg>