<?xml version="1.0" encoding="UTF-8"?>
<svg width="36px" height="41px" viewBox="0 0 36 41" version="1.1" xmlns="http://www.w3.org/2000/svg" xmlns:xlink="http://www.w3.org/1999/xlink">
    <!-- Generator: Sketch 60 (88103) - https://sketch.com -->
    <title>Group 3</title>
    <desc>Created with Sketch.</desc>
    <defs>
        <polygon id="path-1" points="0 0.08 36 0.08 36 40.08 0 40.08"></polygon>
    </defs>
    <g id="Diseño-Escritorio" stroke="none" stroke-width="1" fill="none" fill-rule="evenodd">
        <g id="Home" transform="translate(-153.000000, -2176.000000)">
            <g id="Group-3" transform="translate(153.000000, 2176.000000)">
                <mask id="mask-2" fill="white">
                    <use xlink:href="#path-1"></use>
                </mask>
                <g id="Clip-2"></g>
                <path d="M7.71471115,22.5796381 C5.58439267,22.5796381 3.85760375,24.2584491 3.85760375,26.3295778 C3.85760375,28.4007065 5.58439267,30.08 7.71471115,30.08 C9.8445333,30.08 11.5718186,28.4007065 11.5718186,26.3295778 C11.5718186,24.2584491 9.8445333,22.5796381 7.71471115,22.5796381 M28.2857852,22.5796381 C26.1554667,22.5796381 24.4291741,24.2584491 24.4291741,26.3295778 C24.4291741,28.4007065 26.1554667,30.08 28.2857852,30.08 C30.4161037,30.08 32.1428926,28.4007065 32.1428926,26.3295778 C32.1428926,24.2584491 30.4161037,22.5796381 28.2857852,22.5796381 M32.1428926,18.2052714 L32.1428926,9.45509048 C32.1428926,8.41952613 31.2797463,7.57987936 30.2145871,7.57987936 L21.8576038,7.57987936 C20.7924445,7.57987936 19.9283055,8.41952613 19.9283055,9.45509048 L19.9283055,18.2052714 C19.9283055,19.2403532 20.7924445,20.0795174 21.8576038,20.0795174 L30.2145871,20.0795174 C31.2797463,20.0795174 32.1428926,19.2403532 32.1428926,18.2052714 M16.0716945,18.2052714 L16.0716945,9.45509048 C16.0716945,8.41952613 15.2085482,7.57987936 14.1428926,7.57987936 L5.78590928,7.57987936 C4.72075003,7.57987936 3.85760375,8.41952613 3.85760375,9.45509048 L3.85760375,18.2052714 C3.85760375,19.2403532 4.72075003,20.0795174 5.78590928,20.0795174 L14.1428926,20.0795174 C15.2085482,20.0795174 16.0716945,19.2403532 16.0716945,18.2052714 M36,7.57987936 L36,27.5798794 C36,31.6275559 31.0479526,35.0792762 25.5524059,35.0792762 L30.6126568,38.9643314 C31.0911347,39.3310737 30.822115,40.08 30.2145871,40.08 L5.78590928,40.08 C5.17738867,40.08 4.91085068,39.3301086 5.38783951,38.9643314 L10.4485868,35.0792762 C4.96743417,35.0792762 0,31.6386546 0,27.5798794 L0,7.57987936 C0,3.43762197 5.14314077,0.08 10.2857852,0.08 L25.7147112,0.08 C30.9372673,0.08 36,3.43762197 36,7.57987936" id="Fill-1" fill="#FFFFFF" mask="url(#mask-2)"></path>
            </g>
        </g>
    </g>
</svg>