<?xml version="1.0" encoding="UTF-8"?>
<svg width="52px" height="41px" viewBox="0 0 52 41" version="1.1" xmlns="http://www.w3.org/2000/svg" xmlns:xlink="http://www.w3.org/1999/xlink">
    <!-- Generator: Sketch 60 (88103) - https://sketch.com -->
    <title>Fill 1</title>
    <desc>Created with Sketch.</desc>
    <g id="Diseño-Escritorio" stroke="none" stroke-width="1" fill="none" fill-rule="evenodd">
        <g id="Home" transform="translate(-829.000000, -2172.000000)" fill="#FFFFFF">
            <path d="M845.058824,2182.45037 L865.705882,2182.45037 L865.705882,2189.11704 L856.172447,2186.22313 C855.658338,2186.0674 855.106368,2186.0674 854.592757,2186.22313 L845.058824,2189.11704 L845.058824,2182.45037 Z M869.34976,2201.19258 L875.038373,2195.72281 C876.411469,2194.40254 875.846372,2192.14659 873.995503,2191.57476 L870.600401,2190.52569 L870.600401,2179.57988 C870.600401,2178.19977 869.43608,2177.08024 868.000251,2177.08024 L862.800452,2177.08024 L862.800452,2173.95521 C862.800452,2172.91965 861.926709,2172.08 860.850213,2172.08 L849.149787,2172.08 C848.072789,2172.08 847.20005,2172.91965 847.20005,2173.95521 L847.20005,2177.08024 L841.999749,2177.08024 C840.56392,2177.08024 839.4001,2178.19977 839.4001,2179.57988 L839.4001,2190.52569 L836.004497,2191.57476 C834.155635,2192.14611 833.587025,2194.40109 834.961627,2195.72281 L840.65024,2201.19258 C839.223445,2204.60232 835.953809,2207.08024 830.949737,2207.08024 C829.872739,2207.08024 829,2207.91941 829,2208.95497 L829,2210.20527 C829,2211.24084 829.872739,2212.08 830.949737,2212.08 C835.90814,2212.08 839.684155,2210.46971 842.589438,2207.43975 C843.761287,2210.16039 846.551644,2212.08 849.800201,2212.08 L860.199799,2212.08 C863.448858,2212.08 866.238713,2210.16039 867.410562,2207.43975 C870.314842,2210.46971 874.091358,2212.08 879.050765,2212.08 C880.127261,2212.08 881,2211.24084 881,2210.20527 L881,2208.95497 C881,2207.91941 880.127261,2207.08024 879.050765,2207.08024 C874.108924,2207.08024 870.800143,2204.65829 869.34976,2201.19258 L869.34976,2201.19258 Z" id="Fill-1"></path>
        </g>
    </g>
</svg>