<?xml version="1.0" encoding="UTF-8"?>
<svg width="50px" height="34px" viewBox="0 0 50 34" version="1.1" xmlns="http://www.w3.org/2000/svg" xmlns:xlink="http://www.w3.org/1999/xlink">
    <!-- Generator: Sketch 60 (88103) - https://sketch.com -->
    <title>Group 7</title>
    <desc>Created with Sketch.</desc>
    <g id="Diseño-Escritorio" stroke="none" stroke-width="1" fill="none" fill-rule="evenodd">
        <g id="Home" transform="translate(-650.000000, -870.000000)" fill="#05448E">
            <g id="Group-7" transform="translate(650.000000, 870.000000)">
                <path d="M14.9829014,7.3227601 C14.410683,11.1741281 17.3178782,13.6212366 20.1762585,13.603402 C21.9091855,13.5922686 23.9458493,12.4087178 24.7824815,10.7120192 C25.947258,8.34767645 24.9628253,5.66744432 23.704487,4.4314752 C22.9098899,3.65209735 21.2528971,2.85892521 19.3925091,3.1361906 C16.9395631,3.5017395 15.3191815,5.06325406 14.9829014,7.3227601 M34.8749507,10.4126829 C35.9109102,8.75598768 35.49734,5.78883414 38.0099485,5.82745818 C40.7896827,5.8702205 40.1537338,9.3767311 39.2845583,11.6086485 C39.6886368,12.0611015 40.4873019,12.1135199 41.1463023,12.30664 C41.9964942,11.029288 41.8147945,9.18636978 43.3022913,8.71874307 C46.0793135,7.84280514 46.8535712,11.1741281 45.5559099,13.3039678 C46.019651,14.2143915 46.7111946,14.2433595 46.9281495,15.098606 C47.2698534,16.4518266 46.3505071,17.8574656 45.0664055,17.9898909 C43.9341723,18.1043836 41.8608974,17.2174102 40.4601825,16.7925458 C36.8573758,15.7027962 33.1596513,14.4902774 29.4849782,13.4032867 C28.651058,13.1563688 27.6327261,12.7411604 27.2313596,12.8059936 C26.6089703,12.906692 26.2442149,13.83091 25.7614904,14.3012955 C24.5668826,15.4641549 22.6956469,16.5263158 20.3728739,16.5939079 C15.5469841,16.7318509 11.537387,12.8473765 12.043163,7.3227601 C12.4106303,3.32379306 15.4181671,0.415955001 19.2948794,0.0462678097 C24.806889,-0.480674381 27.7466274,3.56933156 28.4069838,8.32008786 C30.3188985,9.26499728 32.7121819,9.72296798 34.8749507,10.4126829" id="Fill-1"></path>
                <path d="M50,23.963337 L50,25.2222279 C49.742976,25.7920135 49.3769522,26.4301734 48.9301879,26.8699138 C47.3005746,28.4720168 45.2174687,29.4305972 42.9015609,30.7457964 C41.1266148,31.7526411 38.3181897,33.6389666 36.0937878,33.9419584 C34.6216187,34.1430592 32.7255617,33.7743744 31.0367387,33.5545042 C27.5622042,33.1026978 25.0175315,32.5771544 21.6035524,32.0046874 C19.9389516,31.7258277 18.1868819,31.0916898 16.9367493,31.3263074 C15.8211841,31.5354522 14.9814825,32.8050686 14.0193244,32.6830674 C13.8941766,28.5765892 14.402842,23.4485189 14.797125,19.2160175 C17.5678711,18.7735958 21.0047267,17.7560257 24.4240886,18.0536549 C27.1692669,18.2922945 29.425965,19.1395992 31.8145393,19.8943975 C32.8036109,20.2067741 34.0416325,20.5714369 35.3159873,20.9602317 C36.5593916,21.3396419 37.972351,21.6573812 38.0382891,22.8975027 C38.1163383,24.3641979 36.6253297,25.06671 35.2190986,25.2222279 C32.1940198,25.5600773 29.4703723,24.4406162 27.0495018,24.5451886 C27.8892034,25.7263206 29.5134339,26.0963461 30.9398501,26.3859312 C36.5715027,27.5268431 41.7321688,25.8295523 45.7207514,23.963337 C47.3395992,23.2058573 49.2356562,22.0059559 50,23.963337" id="Fill-3"></path>
                <path d="M5.00111325,31.987505 C8.20939922,33.1213344 8.69253549,27.3220317 5.28316037,28.1083324 C3.01372569,28.6329801 3.67444718,31.5178715 5.00111325,31.987505 M0,33.3454167 L0,32.1820675 C0.30032795,30.1680107 0.50533442,27.8372868 0.754737196,25.4904611 C0.919264681,23.9460378 0.826554749,19.9125571 1.98085869,19.28459 C3.07901437,18.6888264 5.02200563,19.200056 6.51058764,19.28459 C8.16761446,19.3798585 9.85467407,19.1638271 10.9463009,19.8669355 C11.1486958,23.0336071 10.732154,26.8148276 10.4736108,30.3384206 C10.4122394,31.1837608 10.3926528,33.2031849 9.9082108,33.6365895 C9.27621633,34.1988079 6.94018719,33.9264204 5.66183474,33.9264204 C3.32449983,33.9264204 0.947991702,34.3048108 0,33.3454167" id="Fill-5"></path>
            </g>
        </g>
    </g>
</svg>