<?xml version="1.0" encoding="UTF-8"?>
<svg width="37px" height="33px" viewBox="0 0 37 33" version="1.1" xmlns="http://www.w3.org/2000/svg" xmlns:xlink="http://www.w3.org/1999/xlink">
    <!-- Generator: Sketch 60 (88103) - https://sketch.com -->
    <title>Group 3</title>
    <desc>Created with Sketch.</desc>
    <defs>
        <polygon id="path-1" points="0 0.0004 37 0.0004 37 32.375 0 32.375"></polygon>
    </defs>
    <g id="Diseño-Escritorio" stroke="none" stroke-width="1" fill="none" fill-rule="evenodd">
        <g id="Home" transform="translate(-482.000000, -872.000000)">
            <g id="Group-3" transform="translate(482.000000, 872.000000)">
                <mask id="mask-2" fill="white">
                    <use xlink:href="#path-1"></use>
                </mask>
                <g id="Clip-2"></g>
                <path d="M34.335,9.5234 L24.282,15.9204 L24.282,10.9864 C24.282,9.6194 22.769,8.7894 21.616,9.5234 L11.563,15.9204 L11.563,1.7344 C11.563,0.7764 10.786,0.0004 9.829,0.0004 L1.735,0.0004 C0.777,0.0004 0,0.7764 0,1.7344 L0,30.6404 C0,31.5984 0.777,32.3754 1.735,32.3754 L35.266,32.3754 C36.224,32.3754 37,31.5984 37,30.6404 L37,10.9864 C37,9.6194 35.488,8.7894 34.335,9.5234" id="Fill-1" fill="#05448E" mask="url(#mask-2)"></path>
            </g>
        </g>
    </g>
</svg>