<?xml version="1.0" encoding="UTF-8"?>
<svg width="37px" height="37px" viewBox="0 0 37 37" version="1.1" xmlns="http://www.w3.org/2000/svg" xmlns:xlink="http://www.w3.org/1999/xlink">
    <!-- Generator: Sketch 60 (88103) - https://sketch.com -->
    <title>Group 3</title>
    <desc>Created with Sketch.</desc>
    <defs>
        <polygon id="path-1" points="0 0 37 0 37 37 0 37"></polygon>
    </defs>
    <g id="Diseño-Escritorio" stroke="none" stroke-width="1" fill="none" fill-rule="evenodd">
        <g id="Home" transform="translate(-140.000000, -870.000000)">
            <g id="Group-3" transform="translate(140.000000, 870.000000)">
                <mask id="mask-2" fill="white">
                    <use xlink:href="#path-1"></use>
                </mask>
                <g id="Clip-2"></g>
                <path d="M18.5004248,4.62501681 C19.7774393,4.62501681 20.8128717,5.66041339 20.8128717,6.93738362 C20.8128717,8.21407064 19.7774393,9.24975042 18.5004248,9.24975042 C17.2234104,9.24975042 16.1876947,8.21407064 16.1876947,6.93738362 C16.1876947,5.66041339 17.2234104,4.62501681 18.5004248,4.62501681 L18.5004248,4.62501681 Z M36.0973952,18.0560022 C36.4485812,17.5014873 36.2339046,16.7558092 35.6601119,16.4377702 L33.6317292,15.312881 C33.0910726,15.0129671 32.4311827,15.2072456 32.095007,15.7260767 C29.1243695,20.3171089 24.0106473,23.1245177 18.5004248,23.1245177 C16.7711167,23.1245177 15.0871229,22.8172405 13.4844117,22.2913293 L18.3523036,13.8594742 C18.4027158,13.8608902 18.4488798,13.8750504 18.4995752,13.8750504 C18.5502706,13.8750504 18.5972842,13.8608902 18.64713,13.8594742 L22.339115,20.2548039 C24.5960518,19.607681 26.6434099,18.3944319 28.309278,16.7198422 L24.5663143,10.236719 C25.1049884,9.25201606 25.4380487,8.13902138 25.4380487,6.93738362 C25.4380487,3.10590652 22.3320346,0 18.5004248,0 C14.668815,0 11.5628009,3.10590652 11.5628009,6.93738362 C11.5628009,8.13902138 11.8958612,9.25201606 12.4336857,10.236719 L7.49782231,18.7863873 C6.59068607,17.9475348 5.76624848,17.0095606 5.06387637,15.9682168 C4.71750496,15.4550498 4.05421645,15.2729491 3.51894093,15.5830583 L1.51349862,16.744481 C0.946219851,17.0727153 0.745137512,17.8212255 1.10566965,18.3680938 C2.2308811,20.0763849 3.61268495,21.5629266 5.15110645,22.8500922 L0,31.7716084 L0.507520495,35.9811638 C0.599848442,36.746383 1.40049601,37.2091396 2.10938206,36.9061105 L6.00839693,35.2411498 L11.1249512,26.3793899 C13.4509924,27.2638383 15.9435638,27.7492513 18.5004248,27.7492513 C25.6583897,27.7492513 32.2946733,24.0633414 36.0973952,18.0560022 L36.0973952,18.0560022 Z M33.0267829,24.8891665 C31.2164754,26.3584327 29.2232113,27.5759299 27.0617178,28.4337571 L30.9916031,35.2403002 L34.8906179,36.9052609 C35.599504,37.20829 36.4001516,36.7455334 36.4924795,35.9803142 L37,31.7713252 L33.0267829,24.8891665 Z" id="Fill-1" fill="#05448E" mask="url(#mask-2)"></path>
            </g>
        </g>
    </g>
</svg>