<?xml version="1.0" encoding="UTF-8"?>
<svg width="37px" height="37px" viewBox="0 0 37 37" version="1.1" xmlns="http://www.w3.org/2000/svg" xmlns:xlink="http://www.w3.org/1999/xlink">
    <!-- Generator: Sketch 60 (88103) - https://sketch.com -->
    <title>Group 10</title>
    <desc>Created with Sketch.</desc>
    <defs>
        <polygon id="path-1" points="0 0.0001 37 0.0001 37 37 0 37"></polygon>
    </defs>
    <g id="Diseño-Escritorio" stroke="none" stroke-width="1" fill="none" fill-rule="evenodd">
        <g id="Home" transform="translate(-821.000000, -871.000000)">
            <g id="Group-10" transform="translate(821.000000, 870.000000)">
                <g id="Group-3" transform="translate(0.000000, 0.999500)">
                    <mask id="mask-2" fill="white">
                        <use xlink:href="#path-1"></use>
                    </mask>
                    <g id="Clip-2"></g>
                    <path d="M15.0327,25.4351 C9.2847,25.4351 4.6267,20.7861 4.6267,15.0301 C4.6267,9.2831 9.2767,4.6261 15.0327,4.6261 C20.7807,4.6261 25.4387,9.2751 25.4387,15.0301 C25.4387,20.7771 20.7887,25.4351 15.0327,25.4351 M36.4967,31.9901 L29.2917,24.7851 C28.9667,24.4601 28.5257,24.2801 28.0627,24.2801 L26.8857,24.2801 C28.8797,21.7281 30.0647,18.5201 30.0647,15.0301 C30.0647,6.7271 23.3357,0.0001 15.0327,0.0001 C6.7297,0.0001 -0.0003,6.7271 -0.0003,15.0301 C-0.0003,23.3331 6.7287,30.0601 15.0327,30.0601 C18.5227,30.0601 21.7327,28.8751 24.2837,26.8801 L24.2837,28.0581 C24.2837,28.5211 24.4647,28.9621 24.7897,29.2871 L31.9947,36.4911 C32.6747,37.1701 33.7727,37.1701 34.4447,36.4911 L36.4897,34.4461 C37.1697,33.7671 37.1697,32.6691 36.4967,31.9901" id="Fill-1" fill="#05448E" mask="url(#mask-2)"></path>
                </g>
                <path d="M14.314,21.8857 L15.856,21.8857 L16.096,20.4407 C16.626,20.3447 17.107,20.1037 17.541,19.8637 L18.745,20.7297 L19.853,19.6217 L18.986,18.3697 C19.275,17.9367 19.467,17.4547 19.564,16.9257 L21.008,16.6847 L21.008,15.1437 L19.564,14.9027 C19.467,14.3727 19.227,13.8917 18.986,13.4577 L19.853,12.2537 L18.745,11.1467 L17.541,12.0127 C17.107,11.7247 16.626,11.5317 16.096,11.4357 L15.856,9.9907 L14.314,9.9907 L14.074,11.4357 C13.544,11.5317 13.062,11.7727 12.629,12.0127 L11.425,11.1467 L10.317,12.2537 L11.184,13.4577 C10.895,13.8917 10.702,14.3727 10.606,14.9027 L9.162,15.1437 L9.162,16.6847 L10.606,16.9257 C10.702,17.4547 10.943,17.9367 11.184,18.3697 L10.317,19.5737 L11.425,20.6817 L12.629,19.8147 C13.062,20.1037 13.544,20.2967 14.074,20.3927 L14.314,21.8857 Z" id="Fill-4" fill="#05448E"></path>
                <path d="M15.0684,12.6367 C16.8774,12.6367 18.3424,14.1027 18.3424,15.9107 C18.3424,17.7197 16.8774,19.1857 15.0684,19.1857 C13.2594,19.1857 11.7934,17.7197 11.7934,15.9107 C11.7934,14.1027 13.2594,12.6367 15.0684,12.6367" id="Fill-6" fill="#FFFFFF"></path>
                <path d="M15.0732,14.1777 C16.0312,14.1777 16.8072,14.9537 16.8072,15.9107 C16.8072,16.8687 16.0312,17.6447 15.0732,17.6447 C14.1152,17.6447 13.3402,16.8687 13.3402,15.9107 C13.3402,14.9537 14.1152,14.1777 15.0732,14.1777" id="Fill-8" fill="#05448E"></path>
            </g>
        </g>
    </g>
</svg>