<?xml version="1.0" encoding="UTF-8"?>
<svg width="37px" height="37px" viewBox="0 0 37 37" version="1.1" xmlns="http://www.w3.org/2000/svg" xmlns:xlink="http://www.w3.org/1999/xlink">
    <!-- Generator: Sketch 60 (88103) - https://sketch.com -->
    <title>Group 28</title>
    <desc>Created with Sketch.</desc>
    <defs>
        <polygon id="path-1" points="0.0003 0 37 0 37 25.6106 0.0003 25.6106"></polygon>
        <polygon id="path-3" points="0 37 37 37 37 0 0 0"></polygon>
    </defs>
    <g id="Diseño-Escritorio" stroke="none" stroke-width="1" fill="none" fill-rule="evenodd">
        <g id="Home" transform="translate(-299.000000, -870.000000)">
            <g id="Group-28" transform="translate(299.000000, 870.000000)">
                <path d="M34.6875,0.5781 L2.3125,0.5781 C1.3295,0.5781 0.5785,1.3291 0.5785,2.3121 L0.5785,25.0331 L36.4215,25.0331 L36.4215,2.3121 C36.4215,1.3291 35.6705,0.5781 34.6875,0.5781" id="Fill-1" fill="#E1E6E8"></path>
                <g id="Group-5">
                    <mask id="mask-2" fill="white">
                        <use xlink:href="#path-1"></use>
                    </mask>
                    <g id="Clip-4"></g>
                    <path d="M1.1563,24.4546 L35.8443,24.4546 L35.8443,2.3126 C35.8443,1.6766 35.3233,1.1566 34.6873,1.1566 L2.3133,1.1566 C1.6773,1.1566 1.1563,1.6766 1.1563,2.3126 L1.1563,24.4546 Z M36.4223,25.6106 L0.5783,25.6106 C0.2313,25.6106 0.0003,25.3796 0.0003,25.0326 L0.0003,2.3126 C0.0003,1.0406 1.0413,-0.0004 2.3133,-0.0004 L34.6873,-0.0004 C35.9593,-0.0004 37.0003,1.0406 37.0003,2.3126 L37.0003,25.0326 C37.0003,25.3796 36.7693,25.6106 36.4223,25.6106 L36.4223,25.6106 Z" id="Fill-3" fill="#05448E" mask="url(#mask-2)"></path>
                </g>
                <mask id="mask-4" fill="white">
                    <use xlink:href="#path-3"></use>
                </mask>
                <g id="Clip-7"></g>
                <polygon id="Fill-6" fill="#FFFFFF" mask="url(#mask-4)" points="2.891 22.721 34.11 22.721 34.11 2.891 2.891 2.891"></polygon>
                <path d="M25.4956,34.1094 L10.2336,34.1094 C9.2496,34.1094 8.4986,34.8604 8.4986,35.8434 L8.4986,36.4224 L27.2876,36.4224 L27.2876,35.8434 C27.2296,34.8604 26.4776,34.1094 25.4956,34.1094" id="Fill-8" fill="#E1E6E8" mask="url(#mask-4)"></path>
                <path d="M9.0767,35.8437 L26.7097,35.8437 C26.7097,35.2077 26.1897,34.6877 25.5537,34.6877 L10.2337,34.6877 C9.5977,34.6877 9.0767,35.2077 9.0767,35.8437 M27.2297,36.9997 L8.4987,36.9997 C8.1517,36.9997 7.9207,36.7687 7.9207,36.4217 L7.9207,35.8437 C7.9207,34.5717 8.9607,33.5307 10.2337,33.5307 L25.5537,33.5307 C26.8257,33.5307 27.8657,34.5717 27.8657,35.8437 L27.8657,36.4217 C27.8077,36.7687 27.5767,36.9997 27.2297,36.9997" id="Fill-9" fill="#05448E" mask="url(#mask-4)"></path>
                <polygon id="Fill-10" fill="#FFFFFF" mask="url(#mask-4)" points="23.6455 34.1094 12.1405 34.1094 14.3955 30.8724 21.3325 30.8724"></polygon>
                <path d="M13.2393,33.5312 L22.4893,33.5312 L21.0443,31.5082 L14.6843,31.5082 L13.2393,33.5312 Z M23.6453,34.6872 L23.6453,34.6872 L12.1403,34.6872 C11.9093,34.6872 11.7363,34.5722 11.6203,34.3982 C11.5053,34.2252 11.5623,33.9932 11.6783,33.8202 L13.9323,30.6402 C14.0493,30.4672 14.2223,30.4092 14.3953,30.4092 L21.3333,30.4092 C21.5063,30.4092 21.6803,30.5252 21.7953,30.6402 L23.9923,33.7622 C24.1083,33.8782 24.1663,33.9932 24.1663,34.1672 C24.2233,34.3982 23.9343,34.6872 23.6453,34.6872 L23.6453,34.6872 Z" id="Fill-11" fill="#05448E" mask="url(#mask-4)"></path>
                <path d="M0.5786,25.0327 L0.5786,29.1377 C0.5786,30.1197 1.3296,30.8717 2.3126,30.8717 L34.6876,30.8717 C35.6706,30.8717 36.4216,30.1197 36.4216,29.1377 L36.4216,25.0327 L0.5786,25.0327 Z" id="Fill-12" fill="#FFFFFF" mask="url(#mask-4)"></path>
                <path d="M1.1563,25.6108 L1.1563,29.1378 C1.1563,29.7738 1.6773,30.2938 2.3133,30.2938 L34.6873,30.2938 C35.3233,30.2938 35.8443,29.7738 35.8443,29.1378 L35.8443,25.6108 L1.1563,25.6108 Z M34.6873,31.4498 L2.3133,31.4498 C1.0413,31.4498 0.0003,30.4088 0.0003,29.1378 L0.0003,25.0328 C0.0003,24.6858 0.2313,24.4548 0.5783,24.4548 L36.4223,24.4548 C36.7693,24.4548 37.0003,24.6858 37.0003,25.0328 L37.0003,29.1378 C37.0003,30.4088 35.9593,31.4498 34.6873,31.4498 L34.6873,31.4498 Z" id="Fill-13" fill="#05448E" mask="url(#mask-4)"></path>
                <path d="M14.3955,26.8252 C15.0345,26.8252 15.5515,27.3432 15.5515,27.9812 C15.5515,28.6192 15.0345,29.1382 14.3955,29.1382 C13.7565,29.1382 13.2395,28.6192 13.2395,27.9812 C13.2395,27.3432 13.7565,26.8252 14.3955,26.8252" id="Fill-14" fill="#05448E" mask="url(#mask-4)"></path>
                <path d="M18.5005,26.8252 C19.1385,26.8252 19.6565,27.3432 19.6565,27.9812 C19.6565,28.6192 19.1385,29.1382 18.5005,29.1382 C17.8615,29.1382 17.3435,28.6192 17.3435,27.9812 C17.3435,27.3432 17.8615,26.8252 18.5005,26.8252" id="Fill-15" fill="#05448E" mask="url(#mask-4)"></path>
                <path d="M22.605,26.8252 C23.243,26.8252 23.761,27.3432 23.761,27.9812 C23.761,28.6192 23.243,29.1382 22.605,29.1382 C21.966,29.1382 21.449,28.6192 21.449,27.9812 C21.449,27.3432 21.966,26.8252 22.605,26.8252" id="Fill-16" fill="#05448E" mask="url(#mask-4)"></path>
                <polygon id="Fill-17" fill="#05448E" mask="url(#mask-4)" points="14.494 20.419 17.385 20.419 17.385 15.389 14.494 15.389"></polygon>
                <polygon id="Fill-18" fill="#05448E" mask="url(#mask-4)" points="9.852 20.391 12.743 20.391 12.743 10.389 9.852 10.389"></polygon>
                <polygon id="Fill-19" fill="#05448E" mask="url(#mask-4)" points="5.209 20.39 8.1 20.39 8.1 13.279 5.209 13.279"></polygon>
                <path d="M24.8594,18.3843 L26.7094,18.3843 L26.9984,16.6503 C27.6344,16.5343 28.2124,16.2453 28.7334,15.9563 L30.1784,16.9973 L31.5084,15.6673 L30.4674,14.1643 C30.8144,13.6433 31.0454,13.0653 31.1614,12.4293 L32.8954,12.1403 L32.8954,10.2903 L31.1614,10.0013 C31.0454,9.3653 30.7564,8.7873 30.4674,8.2673 L31.5084,6.8213 L30.1784,5.4923 L28.7334,6.5323 C28.2124,6.1863 27.6344,5.9543 26.9984,5.8393 L26.7094,4.1043 L24.8594,4.1043 L24.5704,5.8393 C23.9344,5.9543 23.3564,6.2433 22.8364,6.5323 L21.3904,5.4923 L20.0614,6.8213 L21.1014,8.2673 C20.7554,8.7873 20.5234,9.3653 20.4084,10.0013 L18.6734,10.2903 L18.6734,12.1403 L20.4084,12.4293 C20.5234,13.0653 20.8124,13.6433 21.1014,14.1643 L20.0614,15.6093 L21.3904,16.9393 L22.8364,15.8983 C23.3564,16.2453 23.9344,16.4763 24.5704,16.5923 L24.8594,18.3843 Z" id="Fill-20" fill="#05448E" mask="url(#mask-4)"></path>
                <path d="M25.7646,7.2808 C27.9356,7.2808 29.6956,9.0408 29.6956,11.2118 C29.6956,13.3838 27.9356,15.1428 25.7646,15.1428 C23.5936,15.1428 21.8336,13.3838 21.8336,11.2118 C21.8336,9.0408 23.5936,7.2808 25.7646,7.2808" id="Fill-21" fill="#FFFFFF" mask="url(#mask-4)"></path>
                <path d="M25.7705,9.1309 C26.9195,9.1309 27.8525,10.0629 27.8525,11.2119 C27.8525,12.3609 26.9195,13.2939 25.7705,13.2939 C24.6215,13.2939 23.6895,12.3609 23.6895,11.2119 C23.6895,10.0629 24.6215,9.1309 25.7705,9.1309" id="Fill-22" fill="#05448E" mask="url(#mask-4)"></path>
                <polygon id="Fill-23" fill="#05448E" mask="url(#mask-4)" points="8.21 6.706 9.366 6.706 9.366 5.55 8.21 5.55"></polygon>
                <polygon id="Fill-24" fill="#05448E" mask="url(#mask-4)" points="13.239 6.706 14.395 6.706 14.395 5.55 13.239 5.55"></polygon>
                <polygon id="Fill-25" fill="#05448E" mask="url(#mask-4)" points="15.725 6.706 16.881 6.706 16.881 5.55 15.725 5.55"></polygon>
                <polygon id="Fill-26" fill="#05448E" mask="url(#mask-4)" points="5.666 6.706 6.822 6.706 6.822 5.55 5.666 5.55"></polygon>
                <polygon id="Fill-27" fill="#05448E" mask="url(#mask-4)" points="10.695 6.706 11.851 6.706 11.851 5.55 10.695 5.55"></polygon>
            </g>
        </g>
    </g>
</svg>